<?xml version="1.0" encoding="UTF-8" standalone="no"?>
<!-- Created with Inkscape (http://www.inkscape.org/) -->

<svg
   xmlns:dc="http://purl.org/dc/elements/1.1/"
   xmlns:cc="http://creativecommons.org/ns#"
   xmlns:rdf="http://www.w3.org/1999/02/22-rdf-syntax-ns#"
   xmlns:svg="http://www.w3.org/2000/svg"
   xmlns="http://www.w3.org/2000/svg"
   xmlns:sodipodi="http://sodipodi.sourceforge.net/DTD/sodipodi-0.dtd"
   xmlns:inkscape="http://www.inkscape.org/namespaces/inkscape"
   width="210mm"
   height="297mm"
   viewBox="0 0 210 297"
   version="1.1"
   id="svg8"
   inkscape:version="0.92.2 (5c3e80d, 2017-08-06)"
   sodipodi:docname="drawing2.svg">
  <defs
     id="defs2" />
  <sodipodi:namedview
     id="base"
     pagecolor="#ffffff"
     bordercolor="#666666"
     borderopacity="1.0"
     inkscape:pageopacity="0.0"
     inkscape:pageshadow="2"
     inkscape:zoom="1.979899"
     inkscape:cx="422.82489"
     inkscape:cy="811.8274"
     inkscape:document-units="mm"
     inkscape:current-layer="layer1"
     showgrid="false"
     inkscape:window-width="2612"
     inkscape:window-height="1779"
     inkscape:window-x="-13"
     inkscape:window-y="-13"
     inkscape:window-maximized="1" />
  <metadata
     id="metadata5">
    <rdf:RDF>
      <cc:Work
         rdf:about="">
        <dc:format>image/svg+xml</dc:format>
        <dc:type
           rdf:resource="http://purl.org/dc/dcmitype/StillImage" />
        <dc:title></dc:title>
      </cc:Work>
    </rdf:RDF>
  </metadata>
  <g
     inkscape:label="Layer 1"
     inkscape:groupmode="layer"
     id="layer1">
    <g
       id="g4510"
       transform="matrix(0.75208684,0,0,1,16.721887,0)"
       inkscape:export-xdpi="76.825401"
       inkscape:export-ydpi="76.825401">
      <path
         inkscape:connector-curvature="0"
         id="path4504"
         d="M 39.49851,41.393599 C 25.940411,53.448539 29.587516,74.821576 36.414948,84.199404 56.779697,101.80207 147.06951,97.239583 180.60629,89.869047"
         style="fill:#f9f9f9;stroke:#000000;stroke-width:0.68208927;stroke-linecap:butt;stroke-linejoin:miter;stroke-miterlimit:4;stroke-dasharray:none;stroke-opacity:1"
         sodipodi:nodetypes="ccc" />
      <path
         inkscape:connector-curvature="0"
         id="path4506"
         d="m 39.49851,41.393599 c 20.493387,-11.357873 104.40846,-16.14779 142.78051,0 14.39907,7.725758 4.18339,40.843318 1.74735,46.302083 l -3.42008,2.173365"
         style="fill:#f9f9f9;stroke:#000000;stroke-width:0.68208927;stroke-linecap:butt;stroke-linejoin:miter;stroke-miterlimit:4;stroke-dasharray:none;stroke-opacity:1"
         sodipodi:nodetypes="cccc" />
    </g>
    <path
       style="fill:#f9f9f9;stroke:#000000;stroke-width:0.51762712;stroke-linecap:butt;stroke-linejoin:miter;stroke-miterlimit:4;stroke-dasharray:none;stroke-opacity:1"
       d="m 40.154444,56.18192 c 0.135519,0.609987 -0.576824,0.591617 -1.15576,1.037759 -2.807803,2.163757 -9.681379,6.883079 -13.201809,9.59282 4.705875,0.27218 9.411748,-0.216002 14.117623,-0.188987"
       id="path4512"
       inkscape:connector-curvature="0"
       sodipodi:nodetypes="cscc"
       inkscape:export-xdpi="76.825401"
       inkscape:export-ydpi="76.825401" />
    <path
       style="fill:none;stroke:#f9f9f9;stroke-width:0.23930949px;stroke-linecap:butt;stroke-linejoin:miter;stroke-opacity:1"
       d="m 40.056062,57.887602 c 0.0621,0.0047 0.0466,-0.408273 0.09995,-0.430013 0.0061,-0.0024 0.01477,0.0056 0.01933,0 0.02354,-0.02877 0.009,-0.05278 0.03865,-0.07087 h 0.01933 c 0.0065,0 -0.03425,-0.405756 -0.0285,-0.409256 0.0163,-0.0099 0.0692,0.369056 0.08648,0.362006 0.01223,-0.005 0.02577,0 0.03865,0 0.0065,0 0.01357,0.0035 0.01933,0 0.0082,-0.005 0.257144,-0.645063 0.265309,-0.650043 0.01545,-0.0094 -0.42524,0.297437 -0.409778,0.288037 0.02881,-0.01762 0.256979,0.271726 0.279754,0.243876 0.01019,-0.01246 0.02847,-0.01117 0.03865,-0.02363 0.0046,-0.0056 -0.0046,-0.01804 0,-0.02363 0.05154,-0.06299 0.03221,0.02363 0.05798,-0.07087 0.01243,-0.04556 -0.0184,-0.01124 -0.03865,-0.02363 -0.002,-0.0013 0,-0.06862 0,-0.09449"
       id="path4514"
       inkscape:connector-curvature="0"
       sodipodi:nodetypes="ccccsccsccccccccc"
       inkscape:export-xdpi="76.825401"
       inkscape:export-ydpi="76.825401" />
  </g>
</svg>
